<?xml version="1.0" encoding="utf-8"?>
<!-- Generator: Adobe Illustrator 25.0.0, SVG Export Plug-In . SVG Version: 6.00 Build 0)  -->
<svg version="1.1" id="Calque_1" xmlns="http://www.w3.org/2000/svg" xmlns:xlink="http://www.w3.org/1999/xlink" x="0px" y="0px"
	 viewBox="0 0 653.4 85.8" style="enable-background:new 0 0 653.4 85.8;" xml:space="preserve">
<g id="Marks__x28_no_editing_x29_">
</g>
<g id="Logotype__x28_no_editing_x29_">
</g>
<g id="Campus_name">
</g>
<g id="Company_name">
	<g>
		<g>
			<polygon points="67.5,0 45,0 0,45 0,63.3 45,63.3 45,85.8 67.5,85.8 67.5,45 22.5,45 			"/>
			<polygon points="77.2,22.5 99.7,0 77.2,0 			"/>
			<polygon points="122.2,22.5 122.2,0 99.7,0 99.7,22.5 77.2,45 77.2,67.6 99.7,67.6 99.7,45 			"/>
			<polygon points="122.2,45 99.7,67.6 122.2,67.6 			"/>
		</g>
		<g>
			<path d="M190,21.1l-4.8,38.7h-11.1l4.8-38.7h-10.5l1.2-9.4h32l-1.2,9.4H190z"/>
			<path d="M216.3,29.7h19.2l2.2-18h11.1l-5.9,48.1h-11.1l2.5-20.7h-19.2l-2.5,20.7h-11.1l5.9-48.1h11.1L216.3,29.7z"/>
			<path d="M284.8,21.1h-15.7l-1.2,9.3h15.2l-1.2,9.4h-15.2l-1.3,10.7h16l-1.2,9.4h-26.8l6-48.2H286L284.8,21.1z"/>
			<path d="M306.5,59.8l6-48.1h9.7L344.4,43l3.9-31.3h11.1l-5.9,48.1h-9.7l-22.3-31.5l-3.8,31.5H306.5z"/>
			<path d="M395.3,21.1h-15.7l-1.2,9.3h15.2l-1.2,9.4h-15.2l-1.3,10.7h16l-1.2,9.4h-26.8l5.9-48.1h26.6L395.3,21.1z"/>
			<path d="M421.8,21.1L417,59.8h-11.1l4.8-38.7h-10.5l1.2-9.4h32l-1.2,9.4H421.8z"/>
			<path d="M445.6,11.7l6.3,31.9l14.2-31.9h7.6l6.3,31.9l14.1-31.9h11.8l-22.2,48.1h-9.5l-6.4-29.2l-13.6,29.2h-9.5l-10.4-48.1
				H445.6z"/>
			<path d="M552.1,16.9c4.1,4,6.8,10,6.8,17.1c0,6.9-2.4,14.3-7.4,19.5c-6.1,6.2-13.6,7.4-19.9,7.4c-6,0-12.6-1.1-18.3-6.9
				c-3.3-3.4-6.8-8.9-6.8-16.8c0-8.4,3.4-15,7.9-19.3c6.1-5.8,13.6-7.3,19.8-7.3C543.4,10.6,548.9,13.9,552.1,16.9z M522.2,25.5
				c-2.8,3-4.4,7-4.4,11c0,4.4,1.7,7.9,3.9,10.1c3.2,3.3,7.1,4,10.5,4c3.2,0,7.2-0.5,10.8-4.1c2.6-2.7,4.5-6.9,4.5-11.8
				c0-3.1-0.7-7-3.8-10.1c-3.2-3.1-7-3.8-10-3.8C528.9,20.8,525.1,22.4,522.2,25.5z"/>
			<path d="M585.1,11.7c4.6,0,9.2,0.4,12.8,4.3c1.7,1.7,3.5,4.8,3.5,9.8c0,4.5-1.6,8.2-4,10.5c-2.1,2-5,3.4-7.6,3.9l12.4,19.6h-13
				l-11.6-19l-2.3,19h-11.1l5.9-48.1H585.1z M578.4,33.5h2.7c1.8,0,4.5-0.2,6.5-1.7c1.9-1.5,2.5-3.6,2.5-5.6c0-1.5-0.4-3.5-2.3-4.7
				c-1.4-0.9-3.5-1.2-6.1-1.2H580L578.4,33.5z"/>
			<path d="M622.5,31.8l17.6-20.1h13.3l-21,23.3l17.8,24.8h-14L621.7,38L619,59.8h-11.1l5.9-48.1h11.1L622.5,31.8z"/>
		</g>
	</g>
</g>
<g id="Guides__x28_hide_if_needed_x29_">
</g>
</svg>
