<svg width="275" height="252" viewBox="0 0 275 252" fill="none" xmlns="http://www.w3.org/2000/svg">
    <g filter="url(#filter0_dd_6259_70698)">
        <path fill-rule="evenodd" clip-rule="evenodd"
              d="M20 28V41.915C20 49.7049 26.3771 56.0207 34.2424 56.0207H75.1894C97.3061 56.0207 117.917 85.4932 117.917 106.272V202.368C117.917 212.106 125.887 220 135.72 220H237.197C247.03 220 255 212.106 255 202.368V100.101C255 90.3629 247.03 82.469 237.197 82.469H141.061C109.9 82.469 89.4318 53.3759 89.4318 41.0333V28H20Z"
              fill="url(#paint0_linear_6259_70698)"/>
    </g>
    <path fill-rule="evenodd" clip-rule="evenodd"
          d="M200.7 195.49C199.78 195.263 198.985 195.068 198.985 194.398C198.985 193.501 200.044 193.404 200.499 193.404C201.13 193.404 201.489 193.495 201.959 193.717C202.187 193.542 203.228 192.742 203.228 192.742C202.542 192.286 201.512 191.93 200.51 191.93C198.123 191.93 197.272 193.254 197.272 194.493C197.272 196.278 198.76 196.65 200.073 196.978C200.995 197.208 201.791 197.407 201.791 198.087C201.791 198.436 201.591 199.022 200.255 199.022C199.368 199.022 198.396 198.697 197.705 198.172L197.125 199.556C197.829 200.128 199.048 200.496 200.244 200.496C202.224 200.496 203.504 199.494 203.504 197.944C203.504 196.179 202.015 195.813 200.7 195.49Z"
          fill="#1D2633"/>
    <path fill-rule="evenodd" clip-rule="evenodd"
          d="M208.949 198.976H206.813V196.857H208.949C209.925 196.857 210.419 197.209 210.419 197.916C210.419 198.626 209.938 198.976 208.949 198.976ZM206.813 195.478H208.638H206.813ZM206.813 193.454H208.638C209.789 193.454 210.03 194.007 210.03 194.466C210.03 195.132 209.549 195.478 208.638 195.478H206.813V193.454ZM210.758 196.085L210.676 196.057L210.752 196.014C211.406 195.644 211.765 195.003 211.765 194.209C211.765 192.873 210.679 192.075 208.86 192.075H205.101V200.355H209.083C211.063 200.355 212.154 199.559 212.154 198.113C212.154 197.13 211.645 196.391 210.758 196.085Z"
          fill="#1D2633"/>
    <path fill-rule="evenodd" clip-rule="evenodd"
          d="M217.952 193.45L219.746 192.072H213.744V200.351H219.746V198.973H215.457V196.853H219.115V195.475H215.457V193.45H217.952Z"
          fill="#1D2633"/>
    <path fill-rule="evenodd" clip-rule="evenodd"
          d="M223.055 193.454H224.573C225.67 193.454 226.275 194.018 226.275 195.042C226.275 196.067 225.67 196.631 224.573 196.631H223.055V193.454ZM228.112 200.354L226.369 197.665C227.397 197.197 227.99 196.274 227.99 195.038C227.99 193.21 226.695 192.075 224.61 192.075H221.342V200.354H223.055V198.009H224.61C224.658 198.009 224.706 198.008 224.754 198.007L226.276 200.354H228.112Z"
          fill="#1D2633"/>
    <path fill-rule="evenodd" clip-rule="evenodd"
          d="M193.306 196.213C193.306 195.793 193.269 195.381 193.2 194.981L191.78 196.072C191.781 196.119 191.782 196.166 191.782 196.213C191.782 199.131 189.507 201.504 186.71 201.504C183.913 201.504 181.638 199.131 181.638 196.213C181.638 193.296 183.913 190.923 186.71 190.923C187.77 190.923 188.755 191.264 189.569 191.846L190.852 190.86C189.72 189.906 188.279 189.334 186.71 189.334C183.067 189.334 180.114 192.414 180.114 196.213C180.114 200.013 183.067 203.093 186.71 203.093C190.352 203.093 193.306 200.013 193.306 196.213Z"
          fill="#1D2633"/>
    <path fill-rule="evenodd" clip-rule="evenodd"
          d="M191.926 192.008C192.237 192.428 192.504 192.886 192.716 193.375L186.707 197.995L184.195 196.353V194.378L186.707 196.02L191.926 192.008Z"
          fill="#1D2633"/>
    <path fill-rule="evenodd" clip-rule="evenodd"
          d="M215.01 124.174C214.505 123.647 214.222 122.934 214.222 122.189V113.065C214.222 111.652 213.123 110.507 211.768 110.507H203.799C202.444 110.507 201.345 111.652 201.345 113.065V121.378C201.345 122.791 202.444 123.937 203.799 123.937H212.542C213.256 123.937 213.94 124.233 214.445 124.759L214.447 124.761C214.952 125.288 215.235 126.002 215.235 126.746V179.325C215.235 180.738 216.334 181.884 217.689 181.884H225.658C227.013 181.884 228.111 180.738 228.111 179.325V127.555C228.111 126.142 227.013 124.996 225.658 124.996H216.913C216.199 124.996 215.515 124.701 215.01 124.174Z"
          fill="#1D2633"/>
    <path fill-rule="evenodd" clip-rule="evenodd"
          d="M155.13 153.744L155.14 153.734C155.644 153.21 156.327 152.916 157.038 152.916H178.67C180.019 152.916 181.112 151.776 181.112 150.369V141.221C181.112 140.483 181.394 139.775 181.896 139.254L181.906 139.244C182.41 138.721 183.093 138.427 183.805 138.427H192.56C193.909 138.427 195.003 137.286 195.003 135.879V127.543C195.003 126.137 193.909 124.996 192.56 124.996H183.804C183.09 124.996 182.405 124.7 181.901 124.174C181.396 123.648 181.112 122.934 181.112 122.189V113.054C181.112 111.647 180.019 110.507 178.67 110.507H143.952C142.581 110.507 141.469 111.666 141.469 113.096V121.347C141.469 122.778 142.581 123.937 143.952 123.937H179.431C180.146 123.937 180.831 124.233 181.337 124.76C181.842 125.287 182.126 126.002 182.126 126.748V136.684C182.126 137.426 181.843 138.138 181.338 138.662L181.332 138.668C180.827 139.192 180.145 139.486 179.433 139.486H157.802C156.453 139.486 155.36 140.626 155.36 142.033V151.174C155.36 151.914 155.077 152.624 154.576 153.148L154.567 153.157C154.065 153.681 153.384 153.975 152.675 153.975H143.912C142.563 153.975 141.469 155.115 141.469 156.522V164.858C141.469 166.265 142.563 167.405 143.912 167.405H152.683C153.393 167.405 154.074 167.699 154.576 168.223H154.576C155.078 168.746 155.36 169.456 155.36 170.196V179.336C155.36 180.743 156.453 181.883 157.802 181.884L192.52 181.884C193.891 181.884 195.003 180.725 195.003 179.294V171.043C195.003 169.613 193.891 168.454 192.52 168.454L157.038 168.453C156.327 168.453 155.644 168.159 155.139 167.636L155.13 167.626C154.628 167.106 154.346 166.398 154.346 165.66V155.711C154.346 154.973 154.628 154.265 155.13 153.744Z"
          fill="#1D2633"/>
    <path fill-rule="evenodd" clip-rule="evenodd"
          d="M222.99 149.67L222.958 149.636C222.91 149.587 222.884 149.52 222.884 149.45V148.478C222.884 148.332 222.77 148.213 222.63 148.213H220.35C220.283 148.213 220.218 148.186 220.171 148.136L220.154 148.119C220.106 148.069 220.08 148.002 220.08 147.931V145.546C220.08 145.4 219.966 145.281 219.826 145.281H218.984C218.844 145.281 218.731 145.4 218.731 145.546V152.495C218.731 152.64 218.844 152.759 218.984 152.759H219.826C219.966 152.759 220.08 152.64 220.08 152.495V148.164L220.112 148.197C220.159 148.247 220.186 148.314 220.186 148.384V149.356C220.186 149.502 220.299 149.621 220.439 149.621H222.72C222.787 149.621 222.851 149.649 222.899 149.698L222.916 149.715C222.963 149.765 222.99 149.832 222.99 149.902V152.495C222.99 152.64 223.103 152.759 223.243 152.759H224.085C224.225 152.759 224.339 152.64 224.339 152.495V145.546C224.339 145.4 224.225 145.281 224.085 145.281H223.243C223.103 145.281 222.99 145.4 222.99 145.546V149.67Z"
          fill="white"/>
    <path fill-rule="evenodd" clip-rule="evenodd"
          d="M222.914 142.373L222.901 142.386C222.852 142.437 222.786 142.465 222.717 142.465H221.535H220.352C220.284 142.465 220.217 142.437 220.168 142.386L220.156 142.373C220.107 142.322 220.079 142.253 220.079 142.181V138.087C220.079 138.015 220.107 137.946 220.156 137.895L220.169 137.881C220.218 137.83 220.284 137.802 220.353 137.802H222.716C222.786 137.802 222.851 137.83 222.9 137.881L222.913 137.895C222.962 137.946 222.99 138.015 222.99 138.087V139.048C222.99 139.198 223.106 139.319 223.25 139.319H224.078C224.222 139.319 224.339 139.198 224.339 139.048V138.184C224.339 138.034 224.222 137.913 224.078 137.913H223.156C223.087 137.913 223.021 137.884 222.973 137.833L222.96 137.82C222.911 137.769 222.884 137.7 222.884 137.628V136.666C222.884 136.516 222.767 136.395 222.623 136.395H220.446C220.302 136.395 220.186 136.516 220.186 136.666V137.628C220.186 137.7 220.158 137.769 220.11 137.82L220.097 137.833C220.048 137.884 219.982 137.913 219.913 137.913H218.991C218.847 137.913 218.731 138.034 218.731 138.184V142.083C218.731 142.233 218.847 142.354 218.991 142.354H219.913C219.982 142.354 220.048 142.383 220.097 142.434L220.11 142.447C220.158 142.498 220.186 142.567 220.186 142.639V143.601C220.186 143.751 220.302 143.872 220.446 143.872H221.93H222.623C222.767 143.872 222.884 143.751 222.884 143.601V142.639C222.884 142.567 222.911 142.498 222.96 142.447L222.972 142.435C223.02 142.384 223.087 142.355 223.156 142.355H224.078C224.222 142.355 224.339 142.234 224.339 142.084V141.22C224.339 141.07 224.222 140.948 224.078 140.948H223.25C223.106 140.948 222.99 141.07 222.99 141.22V142.18C222.99 142.253 222.962 142.322 222.914 142.373Z"
          fill="white"/>
    <path fill-rule="evenodd" clip-rule="evenodd"
          d="M222.901 155.651L222.914 155.665C222.962 155.716 222.99 155.785 222.99 155.857V159.951C222.99 160.023 222.962 160.092 222.914 160.143L222.901 160.156C222.852 160.207 222.786 160.235 222.717 160.236H220.353C220.284 160.236 220.218 160.207 220.169 160.156L220.156 160.143C220.107 160.092 220.08 160.023 220.08 159.951V155.857C220.08 155.785 220.107 155.716 220.156 155.665L220.169 155.651C220.218 155.6 220.284 155.572 220.353 155.572H222.717C222.786 155.572 222.852 155.6 222.901 155.651ZM222.884 155.398V154.436C222.884 154.286 222.767 154.165 222.624 154.165H220.446C220.302 154.165 220.186 154.286 220.186 154.436V155.398C220.186 155.47 220.159 155.539 220.11 155.59L220.097 155.603C220.048 155.654 219.982 155.683 219.913 155.683H218.991C218.847 155.683 218.731 155.804 218.731 155.954V159.853C218.731 160.003 218.847 160.125 218.991 160.125H219.913C219.982 160.125 220.048 160.153 220.097 160.204L220.11 160.218C220.159 160.268 220.186 160.337 220.186 160.409V161.371C220.186 161.521 220.302 161.642 220.446 161.642H222.624C222.767 161.642 222.884 161.521 222.884 161.371V160.409C222.884 160.337 222.911 160.268 222.96 160.218L222.972 160.205C223.021 160.154 223.087 160.126 223.156 160.126H224.079C224.222 160.126 224.339 160.004 224.339 159.854V155.954C224.339 155.804 224.222 155.683 224.079 155.683H223.157C223.087 155.683 223.021 155.654 222.973 155.603L222.96 155.59C222.911 155.539 222.884 155.47 222.884 155.398Z"
          fill="white"/>
    <path fill-rule="evenodd" clip-rule="evenodd"
          d="M222.901 164.538L222.914 164.552C222.962 164.603 222.99 164.671 222.99 164.744V168.837C222.99 168.909 222.962 168.978 222.914 169.029L222.901 169.043C222.852 169.093 222.786 169.122 222.717 169.122H220.353C220.284 169.122 220.218 169.093 220.169 169.043L220.156 169.029C220.107 168.978 220.08 168.909 220.08 168.837V164.744C220.08 164.671 220.107 164.603 220.156 164.552L220.169 164.538C220.218 164.487 220.284 164.458 220.353 164.458H222.717C222.786 164.458 222.852 164.487 222.901 164.538ZM222.884 164.285V163.323C222.884 163.173 222.767 163.052 222.624 163.052H220.446C220.302 163.052 220.186 163.173 220.186 163.323V164.285C220.186 164.357 220.159 164.426 220.11 164.477L220.097 164.49C220.048 164.541 219.982 164.569 219.913 164.569H218.991C218.847 164.569 218.731 164.691 218.731 164.841V168.74C218.731 168.89 218.847 169.011 218.991 169.011H219.913C219.982 169.011 220.048 169.04 220.097 169.09L220.11 169.104C220.159 169.155 220.186 169.224 220.186 169.296V170.257C220.186 170.407 220.302 170.529 220.446 170.529L222.624 170.529C222.767 170.529 222.884 170.407 222.884 170.257V169.296C222.884 169.224 222.911 169.155 222.96 169.104L222.972 169.092C223.021 169.041 223.087 169.012 223.156 169.012H224.079C224.222 169.012 224.339 168.891 224.339 168.741V164.841C224.339 164.691 224.222 164.569 224.079 164.569H223.157C223.087 164.569 223.021 164.541 222.973 164.49L222.96 164.477C222.911 164.426 222.884 164.357 222.884 164.285Z"
          fill="white"/>
    <path fill-rule="evenodd" clip-rule="evenodd"
          d="M220.186 127.786V128.748C220.186 128.82 220.158 128.889 220.11 128.94L220.097 128.953C220.048 129.004 219.982 129.033 219.913 129.033H218.991C218.847 129.033 218.731 129.154 218.731 129.304V130.168C218.731 130.318 218.847 130.439 218.991 130.439H219.913C219.982 130.439 220.048 130.468 220.097 130.519L220.11 130.532C220.158 130.583 220.186 130.652 220.186 130.724V131.686C220.186 131.836 220.302 131.957 220.446 131.957H222.717C222.786 131.957 222.852 131.986 222.901 132.037L222.914 132.05C222.962 132.101 222.99 132.17 222.99 132.242V133.3C222.99 133.372 222.962 133.441 222.914 133.492L222.901 133.505C222.852 133.556 222.786 133.585 222.717 133.585H218.991C218.847 133.585 218.731 133.706 218.731 133.856V134.721C218.731 134.87 218.847 134.992 218.991 134.992H222.623C222.767 134.992 222.884 134.87 222.884 134.721V133.759C222.884 133.687 222.911 133.618 222.96 133.567L222.972 133.554C223.02 133.504 223.087 133.475 223.156 133.475H224.079C224.222 133.475 224.339 133.354 224.339 133.204V132.339C224.339 132.19 224.222 132.068 224.079 132.068H223.156C223.088 132.068 223.021 132.04 222.973 131.989L222.96 131.975C222.911 131.924 222.884 131.855 222.884 131.783V130.822C222.884 130.672 222.767 130.55 222.623 130.55H220.353C220.284 130.55 220.218 130.522 220.169 130.471L220.156 130.457C220.107 130.406 220.08 130.338 220.08 130.265V129.206C220.08 129.134 220.107 129.065 220.156 129.015L220.169 129.001C220.218 128.95 220.284 128.921 220.353 128.921H224.079C224.222 128.921 224.339 128.8 224.339 128.65V127.786C224.339 127.636 224.222 127.515 224.079 127.515H220.446C220.302 127.515 220.186 127.636 220.186 127.786Z"
          fill="white"/>
    <path fill-rule="evenodd" clip-rule="evenodd"
          d="M220.169 177.926L220.156 177.913C220.107 177.862 220.079 177.793 220.079 177.721V172.206C220.079 172.057 219.963 171.935 219.819 171.935H218.991C218.847 171.935 218.731 172.057 218.731 172.206V177.623C218.731 177.773 218.847 177.895 218.991 177.895H219.913C219.982 177.895 220.048 177.923 220.097 177.974L220.109 177.988C220.158 178.038 220.186 178.107 220.186 178.179V179.141C220.186 179.291 220.302 179.413 220.446 179.413H224.078C224.222 179.413 224.339 179.291 224.339 179.141V178.277C224.339 178.127 224.222 178.006 224.078 178.006H220.353C220.283 178.006 220.218 177.977 220.169 177.926Z"
          fill="white"/>
    <defs>
        <filter id="filter0_dd_6259_70698" x="0" y="0" width="275" height="252" filterUnits="userSpaceOnUse"
                color-interpolation-filters="sRGB">
            <feFlood flood-opacity="0" result="BackgroundImageFix"/>
            <feColorMatrix in="SourceAlpha" type="matrix" values="0 0 0 0 0 0 0 0 0 0 0 0 0 0 0 0 0 0 127 0"
                           result="hardAlpha"/>
            <feOffset dy="12"/>
            <feGaussianBlur stdDeviation="10"/>
            <feColorMatrix type="matrix" values="0 0 0 0 0.0862745 0 0 0 0 0.113725 0 0 0 0 0.152941 0 0 0 0.15 0"/>
            <feBlend mode="normal" in2="BackgroundImageFix" result="effect1_dropShadow_6259_70698"/>
            <feColorMatrix in="SourceAlpha" type="matrix" values="0 0 0 0 0 0 0 0 0 0 0 0 0 0 0 0 0 0 127 0"
                           result="hardAlpha"/>
            <feOffset dy="-8"/>
            <feGaussianBlur stdDeviation="10"/>
            <feColorMatrix type="matrix" values="0 0 0 0 0.0862745 0 0 0 0 0.113725 0 0 0 0 0.152941 0 0 0 0.12 0"/>
            <feBlend mode="normal" in2="effect1_dropShadow_6259_70698" result="effect2_dropShadow_6259_70698"/>
            <feBlend mode="normal" in="SourceGraphic" in2="effect2_dropShadow_6259_70698" result="shape"/>
        </filter>
        <linearGradient id="paint0_linear_6259_70698" x1="-144.92" y1="-183.578" x2="251.363" y2="229.695"
                        gradientUnits="userSpaceOnUse">
            <stop stop-color="#861BE3"/>
            <stop offset="1" stop-color="#00FFC1"/>
        </linearGradient>
    </defs>
</svg>
